<?xml version="1.0" encoding="UTF-8" standalone="no"?>
<!-- Created with Inkscape (http://www.inkscape.org/) -->

<svg
   xmlns:dc="http://purl.org/dc/elements/1.1/"
   xmlns:cc="http://creativecommons.org/ns#"
   xmlns:rdf="http://www.w3.org/1999/02/22-rdf-syntax-ns#"
   xmlns:svg="http://www.w3.org/2000/svg"
   xmlns="http://www.w3.org/2000/svg"
   xmlns:xlink="http://www.w3.org/1999/xlink"
   xmlns:sodipodi="http://sodipodi.sourceforge.net/DTD/sodipodi-0.dtd"
   xmlns:inkscape="http://www.inkscape.org/namespaces/inkscape"
   id="svg3058"
   version="1.1"
   inkscape:version="0.48.4 r9939"
   width="600"
   height="561"
   sodipodi:docname="successwhale.svg"
   inkscape:export-filename="/home/ian/Desktop/successwhale.png"
   inkscape:export-xdpi="90"
   inkscape:export-ydpi="90">
  <metadata
     id="metadata3064">
    <rdf:RDF>
      <cc:Work
         rdf:about="">
        <dc:format>image/svg+xml</dc:format>
        <dc:type
           rdf:resource="http://purl.org/dc/dcmitype/StillImage" />
        <dc:title></dc:title>
      </cc:Work>
    </rdf:RDF>
  </metadata>
  <defs
     id="defs3062">
    <radialGradient
       r="123.54523"
       fy="-8.8811283"
       fx="633.10516"
       cy="-8.8811283"
       cx="633.10516"
       gradientTransform="matrix(0,0.8349249,-1.63264,1.0055071e-5,719.79392,-28.595013)"
       gradientUnits="userSpaceOnUse"
       id="radialGradient3896"
       xlink:href="#linearGradient21452"
       inkscape:collect="always" />
    <radialGradient
       r="127.64975"
       fy="498.48712"
       fx="-115.25046"
       cy="498.48712"
       cx="-115.25046"
       gradientTransform="matrix(4.2143459,0.27185707,-0.04476535,0.69395534,775.62694,1231.6563)"
       gradientUnits="userSpaceOnUse"
       id="radialGradient21532"
       xlink:href="#linearGradient21452"
       inkscape:collect="always" />
    <radialGradient
       r="127.64975"
       fy="317.68103"
       fx="-115.25046"
       cy="317.68103"
       cx="-115.25046"
       gradientTransform="matrix(4.2231052,0,0,0.53727662,754.32151,1278.427)"
       gradientUnits="userSpaceOnUse"
       id="radialGradient21530"
       xlink:href="#linearGradient21452"
       inkscape:collect="always" />
    <filter
       inkscape:label="filter1"
       id="filter5029"
       color-interpolation-filters="sRGB">
      <feColorMatrix
         values="44.470588235294116"
         type="hueRotate"
         id="feColorMatrix5031" />
    </filter>
    <linearGradient
       id="linearGradient2065">
      <stop
         style="stop-color:#00575f;stop-opacity:0.00000000;"
         offset="0.00000000"
         id="stop2067" />
      <stop
         style="stop-color:#0062ff;stop-opacity:0.00000000;"
         offset="0.50000000"
         id="stop2073" />
      <stop
         style="stop-color:#002859;stop-opacity:1.0000000;"
         offset="1.0000000"
         id="stop2069" />
    </linearGradient>
    <linearGradient
       id="linearGradient2077">
      <stop
         style="stop-color:#ffffff;stop-opacity:1.0000000;"
         offset="0.00000000"
         id="stop2079" />
      <stop
         style="stop-color:#ffffff;stop-opacity:0.00000000;"
         offset="1.0000000"
         id="stop2081" />
    </linearGradient>
    <linearGradient
       id="linearGradient4894">
      <stop
         style="stop-color:#5f0000;stop-opacity:0.00000000;"
         offset="0.00000000"
         id="stop4896" />
      <stop
         style="stop-color:#ff0000;stop-opacity:0.00000000;"
         offset="0.50000000"
         id="stop4898" />
      <stop
         style="stop-color:#590000;stop-opacity:1.0000000;"
         offset="1.0000000"
         id="stop4900" />
    </linearGradient>
    <linearGradient
       inkscape:collect="always"
       xlink:href="#linearGradient4894"
       id="linearGradient24379"
       gradientUnits="userSpaceOnUse"
       gradientTransform="matrix(0.808875,-0.266308,0.367221,1.115385,-2183.8387,-358.06495)"
       x1="-683.49762"
       y1="-283.38879"
       x2="1100.712"
       y2="504.57803" />
    <linearGradient
       inkscape:collect="always"
       xlink:href="#linearGradient2077"
       id="linearGradient24388"
       gradientUnits="userSpaceOnUse"
       gradientTransform="matrix(1.151577,-0.379136,0.257938,0.783454,-2183.8387,-358.06495)"
       x1="350.37308"
       y1="168.42853"
       x2="285.90225"
       y2="601.16229" />
    <linearGradient
       inkscape:collect="always"
       xlink:href="#linearGradient2077"
       id="linearGradient24466"
       gradientUnits="userSpaceOnUse"
       gradientTransform="matrix(1.19361,0.212529,-0.144591,0.81205,-1983.562,-483.05345)"
       x1="681.0025"
       y1="1.5028361"
       x2="606.2608"
       y2="160.01575" />
    <linearGradient
       inkscape:collect="always"
       xlink:href="#linearGradient2065"
       id="linearGradient24608"
       gradientUnits="userSpaceOnUse"
       gradientTransform="matrix(0.831335,-0.184609,0.254564,1.146356,-2021.2795,-483.61082)"
       x1="-683.49762"
       y1="-283.38879"
       x2="1100.712"
       y2="504.57803" />
    <linearGradient
       inkscape:collect="always"
       xlink:href="#linearGradient2077"
       id="linearGradient24617"
       gradientUnits="userSpaceOnUse"
       gradientTransform="matrix(1.183553,-0.262824,0.178807,0.805208,-2021.2795,-483.61082)"
       x1="350.37308"
       y1="168.42853"
       x2="285.90225"
       y2="601.16229" />
    <filter
       color-interpolation-filters="sRGB"
       inkscape:label="filter1"
       id="filter5029-5-8">
      <feColorMatrix
         values="44.470588235294116"
         type="hueRotate"
         id="feColorMatrix5031-5-3" />
    </filter>
    <linearGradient
       id="linearGradient3173-9-4">
      <stop
         offset="0"
         style="stop-color:#a5a5a5;stop-opacity:1"
         id="stop3175-9" />
      <stop
         offset="1"
         style="stop-color:#000000;stop-opacity:1"
         id="stop3177-8" />
    </linearGradient>
    <radialGradient
       inkscape:collect="always"
       xlink:href="#linearGradient3173-9-4"
       id="radialGradient29347"
       gradientUnits="userSpaceOnUse"
       gradientTransform="matrix(1.461914,-1.7519785,-4.0043113,-3.3413413,3754.9266,3020.1016)"
       cx="286.32483"
       cy="688.89618"
       fx="286.32483"
       fy="688.89618"
       r="59.254597" />
    <radialGradient
       inkscape:collect="always"
       xlink:href="#linearGradient3173-9-4"
       id="radialGradient20310"
       gradientUnits="userSpaceOnUse"
       gradientTransform="matrix(-1.6165853,1.6103644,-3.922852,-3.9380062,4772.7256,2356.6127)"
       cx="441.41846"
       cy="734.65253"
       fx="441.41846"
       fy="734.65253"
       r="59.254597" />
    <radialGradient
       inkscape:collect="always"
       xlink:href="#linearGradient3173-9-4"
       id="radialGradient21243"
       gradientUnits="userSpaceOnUse"
       gradientTransform="matrix(0,-1.9311667,1.5526741,-5.0230357e-6,-221.00471,936.45521)"
       cx="488.9509"
       cy="582.84967"
       fx="488.9509"
       fy="582.84967"
       r="167.56416" />
    <linearGradient
       inkscape:collect="always"
       xlink:href="#linearGradient21452"
       id="linearGradient60984"
       gradientUnits="userSpaceOnUse"
       gradientTransform="matrix(1.1714072,0,0,1.3049979,297.7379,-243.13958)"
       x1="330.96655"
       y1="537.41357"
       x2="364.98157"
       y2="537.41357" />
    <linearGradient
       id="linearGradient21452">
      <stop
         id="stop21454"
         offset="0"
         style="stop-color:#ffe632;stop-opacity:1;" />
      <stop
         id="stop21456"
         offset="1"
         style="stop-color:#ff5232;stop-opacity:1;" />
    </linearGradient>
  </defs>
  <sodipodi:namedview
     pagecolor="#ffffff"
     bordercolor="#666666"
     borderopacity="1"
     objecttolerance="10"
     gridtolerance="10"
     guidetolerance="10"
     inkscape:pageopacity="0"
     inkscape:pageshadow="2"
     inkscape:window-width="1215"
     inkscape:window-height="776"
     id="namedview3060"
     showgrid="false"
     inkscape:zoom="1.0356506"
     inkscape:cx="183.86106"
     inkscape:cy="116.75789"
     inkscape:window-x="65"
     inkscape:window-y="24"
     inkscape:window-maximized="1"
     inkscape:current-layer="svg3058" />
  <g
     transform="matrix(0.18272418,-0.01236702,0.00825424,0.27376897,-27.323148,69.966287)"
     id="back">
    <path
       id="path4782"
       d="m 261.1875,694.53125 c -12.84938,17.9003 -11.28851,61.65912 -6.625,75.15625 106.72959,-5.798 196.87697,-32.59385 273.44196,-87.05804 -86.80147,-23.94764 -181.39394,-18.59329 -266.81696,11.90179 z"
       style="fill:#1c1c1c;fill-opacity:1;stroke:none"
       inkscape:connector-curvature="0"
       transform="translate(0,52.36218)" />
    <path
       id="path4784"
       d="m 254.875,828.04968 c 111.13643,-6.0374 205.83766,-34.01717 285.09375,-93.125 l -15.99508,-2.04886 c -77.04245,57.45695 -160.24841,77.225 -269.75492,83.17386 -6.20337,0.80342 -3.34675,12.15433 0.65625,12 z"
       inkscape:connector-curvature="0" />
  </g>
  <path
     style="fill:#000000"
     d="m 360.53442,562.28756 c -8.70918,-0.41876 -34.36161,-2.79403 -75,-6.94459 -25.13928,-2.56758 -27.88167,-2.65001 -82.83984,-2.48993 -58.9235,0.17163 -72.90316,-0.4318 -91.84443,-3.96446 -21.462575,-4.0029 -43.456604,-12.60502 -57.074374,-22.32246 -19.05099,-13.5945 -35.87129,-37.61164 -44.2163105,-63.13497 -6.66354,-20.38051 -9.97429997,-43.5962 -9.91129997,-69.5 0.12478,-51.30534 14.63376047,-89.40239 45.61963047,-119.78596 25.1502,-24.66133 53.515549,-40.12086 88.766624,-48.3791 8.24962,-1.93263 12.264,-2.22332 30.5,-2.2085 14.91706,0.0121 23.09995,0.45848 28.24961,1.54098 l 7.24961,1.52392 6.42642,-9.59567 c 9.84987,-14.70742 18.71266,-25.28009 34.05122,-40.62062 28.18338,-28.18702 77.3587,-67.11196 98.63925,-78.078329 11.71423,-6.036618 18.88389,-12.740833 18.88389,-17.65797 0,-4.86337 -1.84492,-6.738887 -7.41624,-7.539249 -9.07823,-1.304154 -10.98168,-8.259884 -4.33267,-15.832693 5.08851,-5.795493 10.07463,-7.835909 18.74891,-7.672413 6.64079,0.125167 8.17847,-0.219401 13.42239,-3.007726 11.07418,-5.888424 20.81483,-16.849447 17.72198,-19.942303 -1.59891,-1.598902 -1.42705,-7.297051 0.3221,-10.679523 2.29851,-4.444829 10.20132,-10.7937665 15.7151,-12.6251485 6.3036,-2.093719 11.23585,-1.372025 14.95141,2.187713 3.56058,3.411246 4.53493,6.6540715 5.3486,17.8011485 0.82228,11.265131 2.14134,13.880119 8.16109,16.179081 5.25657,2.007504 2.11923,2.580952 32.74692,-5.985532 7.08928,-1.982852 16.60377,-4.142199 21.14333,-4.798551 7.36761,-1.065247 8.53358,-1.01 10.8604,0.514594 3.8591,2.528575 3.4594,6.22386 -1.08724,10.051825 -7.62077,6.416178 -12.48334,11.579173 -12.07763,12.823845 1.05177,3.226762 6.18054,4.217193 24.61261,4.753011 17.76176,0.516333 18.40136,0.607739 20.25,2.893957 4.13394,5.112442 1.18415,9.640059 -7.6138,11.686378 -3.28749,0.764641 -15.65226,2.321505 -27.47726,3.4597 -11.825,1.138195 -27.8,2.933143 -35.5,3.988773 -13.17545,1.806286 -25.24881,4.588891 -24.24893,5.588768 0.24659,0.246588 4.34881,1.579126 9.11605,2.961197 6.405,1.856874 12.22272,4.658892 22.2858,10.733627 21.55137,13.00981 31.89657,24.08368 35.35922,37.84978 1.39813,5.55841 0.098,8.81111 -5.4794,13.7081 -6.78404,5.95646 -12.65859,5.47043 -28.27207,-2.3391 -14.48612,-7.24564 -36.25765,-15.13847 -46.85586,-16.98665 -8.80924,-1.5362 -22.74839,-1.99264 -28.10937,-0.92045 l -2.95456,0.59091 2.07749,4.15909 c 2.81841,5.64242 3.34919,18.11438 1.13819,26.74476 -2.39274,9.3398 -3.69152,10.91433 -9.00289,10.91433 -6.21961,0 -9.82162,-3.29019 -12.53786,-11.4525 -2.73022,-8.20429 -3.70299,-8.97931 -10.19028,-8.11874 -10.19394,1.35227 -17.8984,6.22107 -21.02339,13.28564 -2.25475,5.09723 -1.88186,6.92459 1.69017,8.28268 3.65769,1.39065 4.72065,4.97745 3.08535,10.41112 -1.82674,6.0698 -9.70593,17.73616 -17.16486,25.41525 -5.4148,5.57461 -6.53135,6.28515 -9.42861,6 -2.12214,-0.20886 -3.96591,-1.23781 -5.20435,-2.90439 -1.90139,-2.55873 -1.89447,-2.69646 0.80464,-16 2.19624,-10.82497 2.74119,-16.31877 2.81903,-28.41906 0.0541,-8.40645 -0.34308,-15.73587 -0.90351,-16.67408 -0.88078,-1.4745 -2.4306,-0.81627 -13,5.52126 -20.16797,12.09295 -38.32571,24.91253 -55.31755,39.05486 -10.81858,9.00431 -29.02054,26.34312 -33.21778,31.64257 l -2.89724,3.65806 10.71629,3.8714 c 5.89395,2.12927 17.01628,7.05042 24.71628,10.93588 44.37134,22.39 60.53316,40.39558 105.45918,117.49005 29.15213,50.02599 41.79821,68.1268 58.46277,83.68 13.03595,12.16658 24.60563,18.2626 38.86944,20.48015 12.35081,1.92013 26.71607,-1.30283 28.6085,-6.41856 0.64452,-1.74231 -0.35219,-3.59467 -5.21808,-9.69764 -21.00466,-26.34476 -33.68181,-55.80393 -33.68181,-78.26977 0,-13.82067 3.69925,-25.88293 11.62516,-37.90655 5.42037,-8.22271 11.01045,-13.35364 18.06957,-16.58541 4.62651,-2.11809 6.58544,-2.43562 13.17223,-2.13517 10.81559,0.49336 19.63922,4.96301 31.4211,15.91651 l 8.78806,8.17018 6.83725,-3.05718 c 27.31686,-12.21435 48.51089,-6.92083 57.34772,14.32344 3.22543,7.75413 4.12854,13.1161 4.12652,24.5 -0.003,16.29276 -4.26421,28.79081 -14.58167,42.76663 -11.56261,15.66246 -31.35863,31.8777 -53.47219,43.79992 -4.85856,2.61942 -8.91613,4.80841 -9.01682,4.86442 -0.10068,0.056 -0.90009,5.49445 -1.77646,12.08543 -0.87636,6.59098 -2.0931,14.2336 -2.70385,16.9836 -3.49635,15.74274 -19.86178,35.62444 -36.36503,44.1784 -18.51024,9.59421 -40.69462,16.2439 -64.47159,19.3251 -9.0917,1.17818 -42.29868,1.98765 -55.5,1.35291 z m 51.69079,-9.8395 c 23.1212,-2.70463 41.00316,-7.66674 59.64743,-16.5517 11.72374,-5.58697 17.9171,-10.3607 25.01571,-19.28164 8.80841,-11.06969 10.95505,-16.56924 13.62956,-34.91812 1.30396,-8.946 2.63752,-16.94045 2.96347,-17.76545 0.32595,-0.825 4.74623,-3.72309 9.82284,-6.4402 25.87417,-13.84842 47.05374,-31.92151 57.58446,-49.13835 12.69625,-20.75732 11.85149,-50.42016 -1.7868,-62.74154 -8.76924,-7.92248 -24.83231,-6.85458 -44.28422,2.94408 -2.59421,1.30681 -5.49067,2.37601 -6.43657,2.37601 -0.9459,0 -5.18034,-3.57393 -9.40985,-7.94206 -15.56053,-16.07048 -28.87051,-21.19323 -40.12553,-15.44352 -4.84182,2.47348 -12.45842,11.22988 -16.20364,18.62845 -4.9583,9.79496 -6.58167,16.53353 -6.59578,27.37891 -0.0281,21.5821 10.38949,45.68883 31.47612,72.83713 4.68161,6.0274 8.50213,11.6524 8.49005,12.5 -0.0465,3.26471 -3.91479,9.89106 -7.26649,12.44753 -11.77662,8.98247 -39.43241,7.48928 -57.70105,-3.11538 -23.77888,-13.80329 -40.77496,-35.40734 -78.50644,-99.79106 -37.59989,-64.15918 -52.81146,-83.71995 -78.17992,-100.53258 -13.25737,-8.78615 -32.62554,-18.55074 -48.59577,-24.49988 -7.0244,-2.61669 -12.93365,-4.57985 -13.13168,-4.36258 -5.51532,6.05125 -24.70056,41.1245 -23.27506,42.55 1.13703,1.13704 6.50349,-0.86863 8.51544,-3.18258 2.33892,-2.68999 5.16293,-2.37338 5.16293,0.57885 0,1.01048 -1.04875,3.05649 -2.33056,4.54668 -4.6784,5.43896 -20.02201,4.21601 -27.50901,-2.19258 -4.60178,-3.93896 -7.0548,-9.62275 -5.14575,-11.92302 1.531,-1.84474 4.98532,-0.2055 4.98532,2.36578 0,2.22123 4.58129,6.67756 8.3151,8.08829 3.46741,1.31008 5.76144,1.39802 3.78232,0.14499 -3.15442,-1.99713 1.384,-24.36523 7.82654,-38.57394 3.35869,-7.40744 3.85285,-6.86194 -7.68468,-8.48306 -8.7147,-1.22449 -31.76463,-1.53922 -38.73928,-0.52896 -14.92473,2.1618 -28.02286,5.95678 -42.5,12.31374 -40.023654,17.57451 -69.737664,46.84927 -84.439054,83.19085 -12.3717405,30.58271 -14.8865505,74.15865 -6.5987,114.34043 7.07096,34.28198 25.08105,63.71397 48.12841,78.65115 18.25524,11.83139 40.460544,18.85317 69.909344,22.10679 6.68845,0.73897 33.55082,1.21419 74,1.30914 l 63.5,0.14906 35.5,3.78919 c 19.525,2.08405 40.675,4.14371 47,4.57701 19.78684,1.35552 47.71692,1.17027 61.19079,-0.40586 z M 61.047526,444.20323 c -8.91622,-1.69679 -13.84706,-13.112 -9.0571,-20.96775 5.05711,-8.29391 15.75818,-9.3872 22.54495,-2.30334 5.53699,5.77938 4.11265,17.02702 -2.70321,21.34651 -2.75874,1.74833 -7.37858,2.57276 -10.78464,1.92458 z M 227.96948,211.83234 c 17.28851,-17.32614 35.24469,-32.05136 57.06494,-46.79692 17.68745,-11.95273 36.51649,-23.10427 39.01084,-23.10427 7.75712,0 10.55991,22.15831 6.07149,48 -1.09858,6.325 -2.27322,13.075 -2.61032,15 l -0.61289,3.5 4.59393,-5 c 5.74693,-6.2549 13.17966,-17.1884 14.05451,-20.6741 0.53233,-2.12095 0.2516,-2.76757 -1.43378,-3.30248 -2.40972,-0.76482 -5.07637,-5.35486 -5.0682,-8.72376 0.0299,-12.32812 13.48458,-23.98687 29.39663,-25.47276 10.52382,-0.98273 13.52977,1.23078 17.48891,12.87838 1.96351,5.77656 4.56833,8.24899 6.10498,5.79472 1.44451,-2.30709 3.0039,-10.56116 3.0039,-15.9 0,-6.87122 -1.6775,-11.07045 -6.11596,-15.30987 -4.26252,-4.07139 -4.57264,-4.95867 -2.46852,-7.06279 4.32757,-4.32758 36.03664,-4.85446 50.72747,-0.8429 11.38006,3.1075 30.95639,10.64537 41.86981,16.12198 5.30241,2.66088 11.28068,5.14561 13.28504,5.52163 3.18764,0.59801 4.02382,0.30414 6.67322,-2.34526 3.81735,-3.81735 3.81012,-6.30007 -0.0408,-14.0064 -4.10949,-8.22381 -12.78774,-15.91616 -28.91139,-25.62686 -9.68276,-5.831601 -15.12341,-8.384739 -22.41734,-10.519807 -14.73691,-4.313772 -17.76449,-7.305741 -13.05555,-12.901999 4.78137,-5.682328 20.48123,-8.856016 64.95402,-13.130296 27.91036,-2.682464 32.23519,-3.786974 15.29922,-3.907237 -16.35385,-0.116128 -22.2814,-1.372364 -26.53201,-5.622976 -2.21267,-2.212669 -3.26721,-4.219215 -3.26721,-6.216731 0,-3.634754 4.38171,-10.343212 8.96388,-13.72383 2.69807,-1.990576 3.01216,-2.525166 1.4804,-2.519646 -2.89054,0.01042 -17.17451,3.560452 -32.33328,8.035883 -7.37174,2.176411 -15.24993,3.947228 -17.50708,3.935149 -4.59024,-0.02456 -11.9296,-2.999743 -15.37199,-6.231391 -2.92842,-2.749153 -5.23193,-10.587495 -5.23193,-17.803148 0,-12.356032 -2.6622,-16.1689245 -9.71198,-13.9098325 -4.49517,1.4404705 -9.71778,5.1664035 -11.8912,8.4834685 -1.30788,1.996072 -1.3628,2.934949 -0.33753,5.770275 1.72381,4.767124 0.48245,9.874938 -3.58232,14.740156 -9.79957,11.729322 -26.26651,20.327164 -34.4412,17.982694 -3.58493,-1.028145 -9.92822,1.206656 -12.78577,4.504549 -3.06913,3.542074 -2.8663,4.131025 1.67261,4.856827 10.03459,1.604595 14.53446,12.431735 9.26156,22.284246 -2.21156,4.132339 -11.16499,11.076687 -20.84991,16.171356 -10.03437,5.27848 -43.49782,29.67019 -62.0123,45.20111 -32.7647,27.48478 -54.78328,50.67267 -68.91715,72.57705 -4.97367,7.70809 -11.40481,19.55957 -11.40481,21.01709 0,0.37374 2.78328,-3.10093 6.18506,-7.72148 3.40179,-4.62056 13.18929,-15.42048 21.75,-23.99982 z"
     id="path3068"
     inkscape:connector-curvature="0" />
  <path
     style="fill:#3771c8"
     d="m 418.12623,8.7927818 c -7.65987,1.3103062 -17.95024,7.0946272 -15.66045,16.3846282 2.14789,11.688084 -9.06263,19.266056 -17.31136,25.033147 -8.27308,6.787333 -19.36613,4.989798 -29.03632,7.615411 -3.09956,1.037794 -8.45755,6.078933 -3.95282,8.629841 7.36938,1.539887 13.83808,8.194305 12.1904,16.082885 -2.7381,12.268267 -16.2896,16.935409 -25.55761,23.686796 -45.44998,30.31027 -89.26737,64.70899 -122.59627,108.40988 -5.94294,8.58609 -12.34248,17.51333 -15.75275,27.37433 2.02752,1.61765 3.85634,-3.66401 5.51331,-4.62808 25.26835,-30.60919 55.86593,-56.56376 89.19153,-78.04876 9.56108,-5.68605 18.9191,-13.22859 29.52263,-16.05336 5.37243,3.0984 5.41087,10.84381 6.48746,16.47515 1.44779,15.93512 -2.5032,31.9922 -4.76753,47.64517 2.41553,1.26441 4.47445,-3.5451 6.34234,-4.73672 5.10859,-6.3137 11.1504,-12.85622 13.51233,-20.67002 -2.17298,-4.42765 -7.53784,-7.76833 -6.15555,-13.45772 3.65124,-16.21204 22.31118,-24.44281 37.53679,-22.11774 6.58028,4.4042 6.31738,14.59313 12.82406,18.82874 4.17593,-0.76674 3.49754,-7.13752 4.49597,-10.37994 2.06847,-9.19487 -0.53474,-19.11226 -7.85391,-25.29504 -3.1925,-2.71465 3.07889,-5.09516 5.56066,-5.18098 22.7058,-3.78965 46.15653,0.0473 67.18632,9.09138 11.86244,4.01575 22.69569,11.7525 35.22515,13.23758 7.43723,-0.80548 8.63364,-10.63473 5.00893,-15.93201 -9.13364,-15.37307 -25.64673,-24.97035 -41.24823,-32.980476 -8.21971,-4.461141 -18.48905,-5.412976 -25.4369,-11.828313 -0.48464,-4.874439 5.99892,-7.347068 9.77646,-8.841061 26.0226,-7.00071 53.36865,-6.688939 79.69024,-11.767965 1.24613,-2.402487 -4.02462,-1.59574 -5.37102,-2.05185 -10.24167,-0.942394 -23.74268,1.40673 -30.53636,-8.05653 -2.2745,-5.950733 3.07569,-12.164094 7.09096,-15.932013 1.26133,-0.589212 4.54094,-4.097137 1.32766,-3.862307 -16.93982,2.388599 -33.0603,9.459219 -50.02893,11.104131 -8.42168,-0.151293 -17.86094,-5.320075 -18.43648,-14.694869 -2.08915,-7.258782 0.13805,-16.596171 -5.61242,-22.3289584 -0.91621,-0.5989785 -2.10551,-0.8129523 -3.16829,-0.7543568 z"
     id="path3086"
     inkscape:connector-curvature="0" />
  <path
     style="fill:#afc6e9"
     d="m 162.18808,231.35819 c -31.69748,-0.86348 -62.14349,12.05404 -87.998205,29.48575 -32.087274,21.81291 -56.451333,55.49084 -62.927738,94.18253 -5.6521369,33.42988 -4.5555468,68.33639 4.599938,101.05502 9.092854,30.7326 29.036644,59.93166 59.092196,73.1269 24.855549,11.93727 52.792589,15.18087 80.111269,14.94333 41.79662,0.95991 83.76383,0.28859 125.45836,2.19638 27.70186,2.82733 55.38423,6.49246 83.16759,7.79968 26.83132,-0.21236 54.1352,0.63429 80.11304,-7.1064 24.77448,-6.5157 51.23704,-19.14074 61.9176,-43.93373 5.80028,-12.14252 4.44374,-26.49625 9.53507,-38.77394 7.30784,-7.41532 17.93684,-10.66959 26.10074,-17.16916 20.46898,-14.48194 42.44342,-32.16495 47.52447,-58.05529 3.26269,-15.53511 1.78084,-35.26752 -11.85849,-45.47262 -13.79133,-8.21423 -30.41819,-0.99697 -43.75269,4.61666 -3.15638,2.1964 -6.30986,1.43728 -8.69018,-1.47854 -10.99363,-8.80574 -21.67381,-22.05819 -36.90313,-22.11774 -15.45897,1.64092 -24.31883,17.03668 -29.31551,30.15057 -7.7049,23.55403 1.12047,49.10512 13.33479,69.46937 6.83944,12.37382 16.90153,22.92777 23.22254,35.44009 -1.74556,8.25135 -9.14809,14.4343 -17.5916,15.3587 -23.84644,4.70512 -48.6285,-5.28315 -65.17335,-22.46031 -24.33605,-23.67143 -40.06837,-54.53402 -58.11397,-83.02047 -22.52052,-35.81382 -41.78515,-76.25538 -77.65597,-100.76175 -19.26261,-12.76599 -40.42995,-23.03364 -62.41772,-30.05216 -4.01601,0.21195 -5.09966,6.45626 -7.69444,8.90141 -6.06652,10.77707 -13.53873,21.21741 -17.41056,32.9503 1.8244,3.768 7.36348,-0.32704 9.68594,-1.78029 1.37227,-1.73879 4.62359,-1.35239 3.31917,1.23715 -4.02656,8.3727 -15.21488,6.08128 -22.35913,3.92265 -5.41591,-2.18451 -11.94611,-7.73233 -10.50064,-14.09138 3.10806,-0.96114 3.96645,4.42782 6.0952,5.94433 2.37408,2.17336 6.25358,6.78119 9.68594,4.61667 1.58599,-7.7473 0.57712,-16.12937 3.66666,-23.76382 1.48079,-7.29061 6.29344,-13.87767 6.56242,-21.25619 -4.3755,-4.30285 -11.89824,-2.69054 -17.50108,-3.77179 -5.10238,-0.28748 -10.21861,-0.38213 -15.32853,-0.33191 z M 62.582821,417.35238 c 7.7657,-1.06463 15.098111,5.52379 14.242254,13.45772 0.339478,8.09768 -7.743125,13.87031 -15.358702,12.52232 -8.254126,-1.6569 -14.10639,-13.09932 -8.05653,-20.09606 2.273167,-2.77581 5.072121,-6.29484 9.172978,-5.88398 z"
     id="path3084"
     inkscape:connector-curvature="0" />
  <g
     transform="matrix(0.26195908,-0.08049741,0.08049742,0.26195908,-86.853688,100.44563)"
     id="front">
    <g
       id="g4800"
       transform="matrix(0.97577452,0.21877862,-0.21877862,0.97577452,120.51099,-69.56023)">
      <path
         style="fill:#1c1c1c;fill-opacity:1;stroke:none"
         d="m 770.75,537.34375 c -22.79708,7.58699 -56.76218,21.0645 -75.46518,29.66303 l 4.79181,54.44878 77.54161,-26.92975 c 5.65521,-13.74083 -0.10304,-47.0983 -6.86824,-57.18206 z"
         transform="translate(0,52.36218)"
         id="path4776"
         inkscape:connector-curvature="0" />
      <path
         id="path4748"
         d="m 768.71875,584.04968 c -49.14544,17.43384 -101.71985,42.11354 -141.77189,62.76951 l 0.70939,5.98049 c 47.9626,-20.58273 95.83712,-41.30231 145.09375,-57.4375 4.07297,-1.41326 -0.24482,-12.61165 -4.03125,-11.3125 z"
         inkscape:connector-curvature="0" />
    </g>
    <g
       id="g4818">
      <path
         id="path4750"
         d="m 665.38711,764.62371 c 26.11361,-171.70631 57.72254,-331.26333 95.23967,-505.79759 -178.60263,-32.8255 -388.97222,-20.87365 -551.77096,25.5791 27.24839,137.49712 54.36365,275.18837 73.59212,424.38132 121.67788,24.31057 234.89567,56.69805 382.93917,55.83717 z"
         style="fill:#222222;fill-opacity:1;stroke:none"
         inkscape:connector-curvature="0" />
      <path
         id="path4804"
         d="M 695.79308,588.50013 667.5088,756.79155 288.49956,730.62859 267.28636,591.32856 c 101.50566,-27.16119 286.30473,-38.83162 428.50672,-2.82843 z"
         style="fill:#919191;fill-opacity:1;stroke:none"
         inkscape:connector-curvature="0" />
      <path
         transform="translate(0,52.36218)"
         id="path4813"
         d="M 440.86205,698.84358 424.26407,188.24142 281.4285,213.69726 369.93817,682.77251 z"
         style="fill:#ffffff;fill-opacity:0.19607843;stroke:none"
         inkscape:connector-curvature="0" />
      <path
         style="fill:none;stroke:#000000;stroke-width:12;stroke-linecap:butt;stroke-linejoin:round;stroke-miterlimit:4;stroke-opacity:1;stroke-dasharray:none"
         d="m 665.38711,764.62371 c 26.11361,-171.70631 57.72254,-331.26333 95.23967,-505.79759 -203.59319,-34.80491 -388.96892,-20.89649 -551.77096,25.5791 27.24839,137.49712 54.36365,275.18837 73.59212,424.38132 121.67788,24.31057 234.89567,56.69805 382.93917,55.83717 z"
         id="path4806"
         inkscape:connector-curvature="0" />
    </g>
    <g
       id="g4795"
       transform="matrix(0.97577452,0.21877862,-0.21877862,0.97577452,120.51099,-69.56023)">
      <path
         id="path4778"
         transform="translate(0,52.36218)"
         d="m 834.03125,525.3125 c -18.17586,-0.0267 -39.90515,3.68228 -63.28125,12.03125 8.07172,18.32166 3.82309,40.13059 1.8125,60.34375 -4.65595,1.33512 -9.8405,3.05183 -15.59375,5.25 -89.8219,34.31862 -197.6198,39.05498 -263.125,37.96875 -108.10936,1.14692 -209.73028,-7.10096 -277.65625,13.625 -112.32189,34.2723 -65.39977,120.79373 38.375,115.15625 -1.18461,-9.60808 -0.76324,-42.26826 1.25,-52.90625 71.54923,-25.77444 143.83394,-37.31317 272.90625,-33.4375 76.23495,-0.59536 151.36596,-5.49527 239,-37.90625 1.21852,-0.45066 2.42523,-0.93527 3.625,-1.46875 0.0851,-0.0378 0.16506,-0.0868 0.25,-0.125 149.94462,-61.63595 133.13384,-118.42734 62.4375,-118.53125 z"
         style="fill:#1c1c1c;fill-opacity:1;stroke:none"
         inkscape:connector-curvature="0" />
      <path
         id="path4746"
         d="m 495.82265,691.30904 c -108.14099,1.38346 -211.24328,-11.57652 -281.4164,9.83439 -35.93279,10.96365 -81.68645,41.3376 -65.59375,80.625 11.86132,28.95726 52.46604,49.19284 106.0625,46.28125 6.06401,-1.07667 8.92098,-10.54967 -0.65625,-12 -50.17831,2.7259 -86.73551,-16.76291 -94.375,-38.9375 -12.65083,-36.72064 34.18336,-57.11837 58.09375,-64.46875 66.06909,-20.31054 168.154,-12.15994 277,-13.375 108.846,-1.21506 224.97764,-11.93674 320.4375,-72.15625 -125.46263,62.5115 -239.64254,63.17456 -319.55235,64.19686 z"
         inkscape:connector-curvature="0" />
      <path
         d="m 768.71875,584.04968 c 10e-4,3.99457 0.0788,7.97645 4.03125,11.3125 24.83748,-8.13611 100.76915,-29.35951 106.625,5.9375 8.26394,49.81218 -87.10168,80.08308 -113.90625,90.9375 -94.1239,38.11515 -175.60333,37.04751 -259.6875,37.65625 -84.08417,0.60874 -170.75382,2.85895 -272.84375,48.28125 141.50095,-47.80667 198.0679,-39.7207 274.42148,-40.32186 83.93115,-0.66081 166.30445,4.84179 262.60977,-34.49064 C 803.23276,689.77669 906.65847,654.79116 890.5,596.79968 878.74307,554.605 801.59065,572.38871 768.71875,584.04968 z"
         id="path4780"
         inkscape:connector-curvature="0" />
    </g>
  </g>
</svg>
